<svg xmlns:xlink="http://www.w3.org/1999/xlink" xmlns="http://www.w3.org/2000/svg" width="97" height="72" viewBox="0 0 97 72" fill="none">
<g opacity="0.63">
<path d="M18.9733 20.553C18.9733 20.553 33.8674 11.7942 59.8513 16.0114" stroke="black" stroke-width="1.00036" stroke-miterlimit="10" stroke-linecap="round" stroke-linejoin="round"/>
<path d="M25.1657 17.9575C25.1657 17.9575 27.9994 15.9705 28.4852 9.96909C28.8495 5.38692 33.262 2.42675 33.262 2.42675C33.262 2.42675 26.9064 3.48106 25.0038 10.9828C24.1942 14.2269 25.1657 17.9575 25.1657 17.9575Z" stroke="black" stroke-width="1.00036" stroke-miterlimit="10" stroke-linecap="round" stroke-linejoin="round"/>
<path d="M25.1659 17.9569C25.1659 17.9569 30.4278 17.0242 33.6658 22.6607C36.0539 27.1618 33.6658 30.5274 33.6658 30.5274C33.6658 30.5274 33.5039 22.8229 25.1659 17.9569Z" stroke="black" stroke-width="1.00036" stroke-miterlimit="10" stroke-linecap="round" stroke-linejoin="round"/>
<path d="M39.8606 1.00769C39.8606 1.00769 31.2367 7.00912 31.7226 16.2546C31.7226 16.2546 37.7148 13.7405 39.8606 1.00769Z" stroke="black" stroke-width="1.00036" stroke-miterlimit="10" stroke-linecap="round" stroke-linejoin="round"/>
<path d="M34.5961 15.7673C34.5961 15.7673 39.1699 16.4161 41.1532 22.2554C43.1365 28.0946 45.5246 29.1895 45.5246 29.1895C45.5246 29.1895 39.0485 28.0541 36.7818 20.1873C35.7699 16.9838 34.5961 15.7673 34.5961 15.7673Z" stroke="black" stroke-width="1.00036" stroke-miterlimit="10" stroke-linecap="round" stroke-linejoin="round"/>
<path d="M39.9791 15.1186C39.9791 15.1186 44.5529 14.186 46.1719 8.22511C47.7909 2.26423 50.1385 1.04772 50.1385 1.04772C50.1385 1.04772 43.6624 2.54808 41.8815 10.577C41.1124 13.821 39.9791 15.1186 39.9791 15.1186Z" stroke="black" stroke-width="1.00036" stroke-miterlimit="10" stroke-linecap="round" stroke-linejoin="round"/>
<path d="M53.4165 26.7974C53.4165 26.7974 49.3285 16.7815 39.9381 15.119C39.9381 15.119 41.0714 21.7286 53.4165 26.7974Z" stroke="black" stroke-width="1.00036" stroke-miterlimit="10" stroke-linecap="round" stroke-linejoin="round"/>
<path d="M60.1355 5.4277C60.1355 5.4277 51.0285 7.29301 48.2357 14.9164C48.2357 14.9164 53.9832 14.957 60.1355 5.4277Z" stroke="black" stroke-width="1.00036" stroke-miterlimit="10" stroke-linecap="round" stroke-linejoin="round"/>
<path d="M63.454 26.8375C63.454 26.8375 60.054 17.1055 51.1898 15.0374C51.1898 15.0374 51.9589 21.4038 63.454 26.8375Z" stroke="black" stroke-width="1.00036" stroke-miterlimit="10" stroke-linecap="round" stroke-linejoin="round"/>
<path d="M74.6252 19.6608C74.6252 19.6608 67.5825 13.6189 59.8516 16.0519C59.8516 16.0519 63.3325 20.6341 74.6252 19.6608Z" stroke="black" stroke-width="1.00036" stroke-miterlimit="10" stroke-linecap="round" stroke-linejoin="round"/>
</g>
<path opacity="0.63" d="M60.1355 5.4277L48.2357 14.9164" stroke="black" stroke-width="0.500181" stroke-miterlimit="10" stroke-linecap="round" stroke-linejoin="round"/>
<path opacity="0.63" d="M50.1385 1.08776C50.1385 1.08776 46.2528 2.75032 44.2291 9.07615C43.0148 13.0501 39.9791 15.1181 39.9791 15.1181" stroke="black" stroke-width="0.500181" stroke-miterlimit="10" stroke-linecap="round" stroke-linejoin="round"/>
<path opacity="0.63" d="M39.8601 1.00769C39.8601 1.00769 33.6655 11.4696 31.722 16.2546" stroke="black" stroke-width="0.500181" stroke-miterlimit="10" stroke-linecap="round" stroke-linejoin="round"/>
<path opacity="0.63" d="M33.2638 2.42675C33.2638 2.42675 26.6238 4.45426 25.2067 17.9575" stroke="black" stroke-width="0.500181" stroke-miterlimit="10" stroke-linecap="round" stroke-linejoin="round"/>
<path opacity="0.63" d="M33.7078 30.5276C33.7078 30.5276 34.9222 21.3633 25.2067 17.9976" stroke="black" stroke-width="0.500181" stroke-miterlimit="10" stroke-linecap="round" stroke-linejoin="round"/>
<path opacity="0.63" d="M45.5246 29.1489C45.5246 29.1489 41.3961 27.2836 39.6151 22.2554C39.0485 20.7145 38.2794 19.2141 37.1461 18.0381C35.8914 16.6594 34.5961 15.7673 34.5961 15.7673" stroke="black" stroke-width="0.500181" stroke-miterlimit="10" stroke-linecap="round" stroke-linejoin="round"/>
<path opacity="0.63" d="M53.4171 26.7974C53.4171 26.7974 43.1362 18.4441 39.9791 15.119" stroke="black" stroke-width="0.500181" stroke-miterlimit="10" stroke-linecap="round" stroke-linejoin="round"/>
<path opacity="0.63" d="M63.454 26.8375C63.454 26.8375 55.885 21.2011 51.1898 15.0374" stroke="black" stroke-width="0.500181" stroke-miterlimit="10" stroke-linecap="round" stroke-linejoin="round"/>
<path d="M74.6252 19.6607C74.6252 19.6607 65.842 18.4036 59.8516 16.0517" stroke="black" stroke-width="0.500181" stroke-miterlimit="10" stroke-linecap="round" stroke-linejoin="round"/>
<path d="M26.0968 48.1674C25.5706 48.9784 25.1254 49.6677 24.7612 50.276C24.3969 50.8437 24.1136 51.3303 23.8708 51.7358C23.6279 52.1413 23.466 52.4251 23.3446 52.6684C23.2232 52.9117 23.1018 53.0739 23.0613 53.1956C22.8994 53.52 22.6566 53.7633 22.3732 53.8849C22.0899 54.0066 21.8471 54.0471 21.6043 53.966C21.3614 53.9255 21.24 53.7633 21.159 53.52C21.0781 53.2767 21.1995 52.9928 21.4424 52.6279C21.6043 52.4251 21.7661 52.2224 21.928 52.0196C22.0899 51.8169 22.2923 51.6141 22.4542 51.3708C22.7375 50.9653 23.1018 50.4787 23.547 49.8299C23.9922 49.1811 24.4779 48.4918 24.9635 47.7213C25.4492 46.9509 25.9754 46.1399 26.461 45.2883C26.9467 44.4367 27.4324 43.5852 27.7967 42.7742C28.1609 41.9632 28.4847 41.1522 28.7276 40.3817C28.9704 39.6113 29.0513 38.9625 29.0109 38.3542C28.9704 37.7865 28.768 37.2999 28.3633 36.935C27.999 36.57 27.3919 36.3673 26.5825 36.3267C25.9349 36.2862 25.2064 36.4484 24.4374 36.7322C23.6684 37.0566 22.8589 37.4621 22.0495 38.0298C21.24 38.5975 20.3901 39.2463 19.5401 39.9762C18.6902 40.7467 17.8402 41.5577 16.9903 42.4092C16.5451 43.6663 16.0594 44.8828 15.4928 46.0588C14.9262 47.2347 14.3595 48.3701 13.7929 49.4244C13.2263 50.4787 12.6597 51.4519 12.093 52.344C11.5264 53.2361 11.0407 54.0066 10.555 54.6554C10.1098 55.3042 9.7051 55.8314 9.42179 56.2369C9.098 56.6424 8.93611 56.8451 8.85516 56.9262C8.45043 57.2101 8.08617 57.3723 7.76238 57.3317C7.4386 57.2912 7.15528 57.1695 6.95292 56.8857C6.75055 56.6424 6.62913 56.2774 6.58866 55.8314C6.54818 55.3853 6.6696 54.8987 6.91244 54.3716C7.35765 53.52 7.8838 52.5468 8.4909 51.533C9.13847 50.5193 9.82652 49.465 10.5955 48.4107C11.3645 47.3564 12.174 46.2615 13.0644 45.2072C13.9548 44.1123 14.8452 43.0986 15.7761 42.0848C16.2213 40.9494 16.626 39.8546 16.9498 38.8408C17.2736 37.7865 17.476 36.8539 17.5974 36.0023C17.7188 35.1507 17.7188 34.4614 17.5569 33.8937C17.395 33.326 17.1117 32.961 16.6665 32.8394C16.3427 32.6772 15.8975 32.6366 15.3714 32.7583C14.8047 32.8799 14.1976 33.1638 13.5096 33.5287C12.8215 33.8937 12.093 34.3803 11.2836 34.948C10.4741 35.5157 9.7051 36.124 8.89563 36.8133C8.08617 37.5027 7.31718 38.192 6.54818 38.9625C5.77919 39.6924 5.09114 40.4628 4.44357 41.1927C3.796 41.9226 3.22937 42.612 2.74369 43.3013C2.25801 43.9501 1.93423 44.5584 1.69139 45.0855C1.56997 45.5316 1.40807 45.6533 1.20571 45.6533C1.00334 45.6533 0.800975 45.5722 0.639081 45.4505C0.477188 45.2883 0.355768 45.1261 0.355768 44.8422C0.315295 44.5989 0.436715 44.3151 0.679555 43.9907C0.760501 43.9096 0.962868 43.6663 1.28665 43.3013C1.61044 42.9364 2.05565 42.4092 2.54133 41.8415C3.06748 41.2738 3.67458 40.625 4.36263 39.8951C5.05067 39.1652 5.77919 38.4353 6.54818 37.7054C7.31718 36.9755 8.12664 36.2456 8.97658 35.5157C9.82652 34.7858 10.6765 34.1775 11.5264 33.5693C12.3763 33.0016 13.1858 32.515 13.9953 32.15C14.8047 31.7851 15.5737 31.5823 16.3022 31.5418C16.7475 31.5012 17.1117 31.5823 17.395 31.7851C17.6783 31.9878 17.9212 32.1906 18.1235 32.515C18.2854 32.7988 18.4473 33.0827 18.5283 33.4071C18.6092 33.7315 18.6497 34.0153 18.6497 34.2181C18.6497 35.2318 18.5688 36.2456 18.4069 37.2594C18.245 38.2731 18.0021 39.2869 17.7188 40.3412C18.4878 39.6518 19.2163 39.003 19.9853 38.3948C20.7543 37.7865 21.4828 37.2999 22.2518 36.8539C22.9803 36.4078 23.7089 36.0834 24.4374 35.8401C25.1254 35.5968 25.8135 35.4346 26.5015 35.394C27.3515 35.3535 28.08 35.4751 28.6061 35.7995C29.1323 36.124 29.4965 36.57 29.7394 37.1783C29.9822 37.7865 30.0632 38.4759 29.9822 39.2869C29.9013 40.0979 29.7394 40.99 29.4156 41.9632C29.0918 42.9364 28.6871 43.9501 28.1205 45.0045C27.5134 46.0588 26.8658 47.1131 26.0968 48.1674ZM8.24806 56.1152C8.36948 56.0747 8.53138 55.9125 8.77422 55.6286C9.01705 55.3448 9.30037 54.9393 9.62415 54.4527C9.94794 53.966 10.3122 53.3578 10.6765 52.709C11.0407 52.0602 11.4859 51.3303 11.8907 50.5193C12.2954 49.7488 12.7406 48.8973 13.1453 48.0457C13.5905 47.1942 13.9953 46.3021 14.4 45.41C13.631 46.3426 12.9025 47.2347 12.2144 48.1674C11.5264 49.0595 10.8788 49.9516 10.3527 50.7626C9.78605 51.5736 9.30037 52.344 8.89563 53.0739C8.4909 53.7633 8.20759 54.3715 8.00522 54.8582C7.80286 55.3448 7.72191 55.7097 7.76238 55.953C7.76238 56.1558 7.92428 56.2369 8.24806 56.1152Z" fill="black"/>
<path d="M36.0945 42.0448C36.6207 42.0043 37.0255 42.0448 37.3493 42.207C37.6731 42.3692 37.8755 42.5314 38.0374 42.7747C38.1993 43.018 38.2802 43.2613 38.2802 43.5046C38.3207 43.7479 38.3207 43.9912 38.2802 44.194C38.2397 44.4373 38.1588 44.64 37.9969 44.7617C37.835 44.8833 37.6731 44.9239 37.4707 44.9239C37.2683 44.9239 37.1064 44.8833 36.9445 44.7617C36.7826 44.6806 36.7017 44.5184 36.7017 44.3562C36.7017 44.2345 36.7017 44.1129 36.7017 43.9507C36.7017 43.7885 36.7017 43.6263 36.6612 43.4641C36.6207 43.3019 36.5398 43.1802 36.4183 43.0991C36.2969 43.018 36.0945 43.018 35.8112 43.0991C35.0017 43.3424 34.3136 43.6668 33.6255 44.0723C32.9779 44.4778 32.4112 44.9239 31.9255 45.451C31.4398 45.9376 31.035 46.4242 30.7517 46.9514C30.4279 47.438 30.266 47.9246 30.1446 48.3301C30.0636 48.7356 30.0636 49.1006 30.1851 49.3844C30.3065 49.6683 30.5493 49.8305 30.9136 49.8305C31.2779 49.871 31.6422 49.7899 32.0469 49.6683C32.4517 49.5061 32.8565 49.3439 33.2612 49.1006C33.666 48.8573 34.0303 48.614 34.3541 48.3301C34.6779 48.0463 34.9612 47.803 35.1636 47.6002C35.285 47.3164 35.4469 47.0325 35.6493 46.7081C35.7302 46.5459 35.8112 46.3431 35.9326 46.0998C36.054 45.8971 36.1755 45.6943 36.3374 45.5321C36.4993 45.3699 36.6612 45.2483 36.8636 45.1672C37.0659 45.0861 37.2683 45.1266 37.5112 45.2483C37.6326 45.3294 37.7135 45.4105 37.754 45.4916C37.7945 45.5727 37.835 45.6538 37.7945 45.7754C37.835 45.8971 37.835 46.0187 37.7135 46.0998L37.5112 46.262C37.1064 46.7487 36.7421 47.1947 36.3374 47.6002C36.0945 48.0057 35.8921 48.3301 35.8517 48.6545C35.7707 48.9789 35.7707 49.2222 35.7707 49.4655C35.8112 49.6683 35.8517 49.871 35.9731 49.9927C36.054 50.1143 36.1755 50.1954 36.2564 50.236C36.5802 50.3171 36.985 50.236 37.4707 50.0332C37.9159 49.8305 38.4016 49.5466 38.9278 49.2222C39.454 48.8978 39.9397 48.4923 40.4254 48.0463C40.9111 47.6002 41.3968 47.1947 41.8016 46.8298C42.2064 46.4242 42.5706 46.0998 42.854 45.816C43.1373 45.5321 43.3397 45.3699 43.4206 45.3294C43.6635 45.1672 43.8659 45.0861 44.0278 45.1672C44.1897 45.2077 44.2301 45.3699 44.0682 45.6538C43.9873 45.7754 43.7849 46.0187 43.4611 46.3837C43.1373 46.7487 42.6921 47.1542 42.2064 47.6408C41.7206 48.1274 41.154 48.5734 40.5064 49.06C39.8992 49.5466 39.2921 49.9521 38.6445 50.3171C38.0374 50.682 37.4302 50.9253 36.904 51.0875C36.3374 51.2497 35.8921 51.2092 35.4874 51.047C35.2445 50.9253 35.0017 50.7226 34.8802 50.3982C34.7588 50.0738 34.6779 49.6683 34.7183 49.1817C34.1112 49.6683 33.4636 50.0332 32.8565 50.3171C32.2493 50.5604 31.6017 50.7226 30.9136 50.7226C30.5089 50.7226 30.1851 50.682 29.9422 50.6009C29.6993 50.5198 29.497 50.3982 29.3755 50.236C29.2541 50.0738 29.1327 49.9116 29.0922 49.7494C29.0517 49.5872 29.0113 49.3844 29.0113 49.2628C29.0113 48.7762 29.0922 48.249 29.2946 47.7219C29.497 47.1947 29.7803 46.6675 30.1446 46.1404C30.5089 45.6132 30.9136 45.1266 31.3993 44.6806C31.885 44.2345 32.4112 43.829 32.9374 43.4641C33.4636 43.0991 33.9898 42.8153 34.5564 42.572C35.1231 42.207 35.6493 42.0854 36.0945 42.0448Z" fill="black"/>
<path d="M63.2111 31.785C63.8182 31.8255 64.3038 31.9472 64.6681 32.1499C65.0324 32.3527 65.2752 32.5554 65.3157 32.7582C65.3561 32.9609 65.1943 33.1637 64.8705 33.2853C64.5062 33.4475 63.8991 33.4881 63.0492 33.407C62.8468 33.407 62.6444 33.3664 62.4421 33.2853C62.2397 33.2042 62.0373 33.1231 61.7945 33.042C61.5921 32.9609 61.3898 32.8798 61.2279 32.8393C61.066 32.7582 60.9041 32.7176 60.8231 32.7176C58.9209 32.5554 57.1401 32.5149 55.4807 32.596C53.8213 32.6771 52.2428 32.7987 50.8262 33.042C49.9763 34.2991 49.1263 35.6373 48.3574 37.0565C47.5884 38.4758 46.8598 39.8545 46.2123 41.2332C45.5647 42.6119 45.0385 43.95 44.5933 45.1666C44.1481 46.4236 43.8243 47.5185 43.622 48.4511C43.4196 49.3838 43.3791 50.1137 43.4601 50.6408C43.541 51.168 43.8243 51.4113 44.2291 51.3707C44.6743 51.3302 45.1195 51.1274 45.6456 50.8436C46.1718 50.5597 46.6979 50.1948 47.2241 49.7487C47.7503 49.3432 48.3169 48.8566 48.843 48.4106C49.3692 47.924 49.8549 47.4779 50.2596 47.0724C50.6643 46.6669 51.0286 46.302 51.3119 45.9776C51.5952 45.6937 51.7571 45.491 51.8381 45.4504C51.9595 45.3693 52.0404 45.3288 52.1214 45.2882C52.2023 45.2882 52.2833 45.2882 52.3237 45.3288C52.3642 45.3693 52.4047 45.4099 52.4452 45.491C52.4856 45.5721 52.4856 45.6126 52.4856 45.6532C52.4856 45.6937 52.3237 45.8965 52.0404 46.2209C51.7571 46.5453 51.3929 46.9913 50.9072 47.4779C50.4215 47.9645 49.8953 48.5322 49.2882 49.0999C48.6811 49.6676 48.0336 50.1948 47.386 50.6814C46.7384 51.168 46.0504 51.5735 45.4028 51.8979C44.7552 52.2223 44.1481 52.3845 43.5815 52.3845C43.1363 52.3845 42.8125 52.2223 42.6101 51.8573C42.4078 51.4924 42.2864 51.0058 42.2864 50.3975C42.2864 49.7893 42.3673 49.0594 42.5292 48.2078C42.6911 47.3563 42.9744 46.4642 43.2577 45.491C43.541 44.5178 43.9458 43.504 44.3505 42.4497C44.7957 41.3954 45.2409 40.3411 45.7671 39.2462C46.2527 38.1919 46.8194 37.1376 47.3455 36.1239C47.9121 35.1101 48.4383 34.1369 49.0454 33.2448C48.074 33.407 47.1836 33.6097 46.4146 33.8125C45.6456 34.0152 44.9576 34.218 44.391 34.3802C43.8243 34.5424 43.3791 34.7046 43.0554 34.8262C42.7316 34.9479 42.5292 34.9884 42.4483 35.029C42.2054 35.0695 42.003 35.029 41.8816 34.9479C41.7602 34.8262 41.6793 34.7046 41.6793 34.5424C41.6793 34.3802 41.7197 34.218 41.8412 34.0963C41.9221 33.9341 42.084 33.853 42.2864 33.7719C42.3673 33.7719 42.5697 33.6908 42.9339 33.5692C43.2982 33.4475 43.7839 33.3259 44.4314 33.1637C45.079 33.0015 45.848 32.8393 46.7384 32.6771C47.6288 32.5149 48.6407 32.3527 49.7739 32.1905C50.0168 31.8255 50.2596 31.5011 50.5024 31.1767C50.7453 30.8523 50.9476 30.5685 51.1905 30.2846C51.3524 30.1224 51.5143 30.0413 51.6762 30.0008C51.8785 30.0008 52.0404 30.0008 52.1618 30.0819C52.3237 30.163 52.4047 30.2846 52.4452 30.4063C52.4856 30.5685 52.4856 30.6901 52.3642 30.8523L51.5547 31.9472C53.1737 31.785 54.995 31.6633 56.9377 31.5822C58.8804 31.5011 60.985 31.6228 63.2111 31.785Z" fill="black"/>
<path d="M59.6497 41.5173C59.8925 41.4768 60.0949 41.5173 60.1759 41.5984C60.2568 41.6795 60.3782 41.8012 60.4187 41.9228C60.4592 42.0445 60.4592 42.2067 60.4187 42.3689C60.3782 42.5311 60.3378 42.6527 60.2973 42.7744C60.1759 43.0177 59.9735 43.3015 59.6902 43.5854C59.4068 43.9098 59.1235 44.1937 58.7997 44.5181C58.4759 44.8019 58.233 45.0858 57.9902 45.3291C57.7473 45.5724 57.5854 45.7346 57.5449 45.8157C56.9378 46.7889 56.4926 47.5999 56.2902 48.1676C56.0473 48.7353 55.9664 49.1408 56.0069 49.4246C56.0473 49.6679 56.2093 49.7896 56.4926 49.749C56.7759 49.7085 57.0997 49.5868 57.5045 49.3841C57.9092 49.1813 58.3545 48.8975 58.8806 48.5325C59.3664 48.1676 59.8925 47.8026 60.3782 47.3971C60.864 46.9916 61.3497 46.5861 61.7949 46.1806C62.2401 45.7751 62.6044 45.3696 62.8877 45.0452C62.9687 44.9641 63.0496 44.9236 63.1711 44.9236C63.2925 44.9236 63.3735 44.9641 63.4544 45.0452C63.5354 45.1263 63.6163 45.2074 63.6568 45.2885C63.6973 45.3696 63.6568 45.4913 63.6163 45.5318C62.8877 46.3428 62.1592 47.0322 61.4306 47.681C60.7021 48.3298 59.9735 48.8569 59.2854 49.303C58.5973 49.749 57.9497 50.0734 57.383 50.2762C56.8164 50.4789 56.3307 50.56 55.9664 50.5195C55.6021 50.4789 55.3593 50.2762 55.2378 49.9112C55.1164 49.5868 55.1569 49.0597 55.3593 48.3703C55.0355 48.7353 54.7116 49.0597 54.3474 49.3841C54.0236 49.7085 53.6593 49.9923 53.3759 50.2762C53.0521 50.5195 52.7688 50.7628 52.445 50.925C52.1617 51.0872 51.8783 51.1683 51.676 51.2088C51.1903 51.2899 50.826 51.2494 50.5831 51.0872C50.3403 50.925 50.1784 50.7222 50.1379 50.4384C50.0569 50.1545 50.0974 49.8301 50.1784 49.4246C50.2593 49.0597 50.3807 48.6542 50.5831 48.2081C50.745 47.8026 50.9474 47.3566 51.1903 46.9511C51.4331 46.505 51.6355 46.1401 51.8379 45.7751C52.0403 45.4102 52.2426 45.0858 52.4045 44.8019C52.5664 44.5181 52.6879 44.3559 52.7283 44.2342C52.8902 43.8693 53.0926 43.5449 53.2545 43.2204C53.4569 42.896 53.6593 42.6122 53.8617 42.3689C54.064 42.1256 54.2664 41.9634 54.5093 41.8012C54.7521 41.6795 54.9545 41.639 55.1974 41.6795C55.3593 41.7201 55.4807 41.8417 55.4807 42.0039C55.5212 42.1661 55.4807 42.3689 55.4402 42.5716C55.3593 42.7744 55.2783 43.0177 55.1164 43.261C54.9545 43.5043 54.8331 43.6665 54.6712 43.8287C54.4283 44.0315 54.145 44.3153 53.9021 44.6803C53.6188 45.0047 53.3355 45.4102 53.0926 45.8157C52.8093 46.2212 52.5664 46.6267 52.2831 47.0322C52.0402 47.4377 51.7974 47.8432 51.595 48.2081C51.3926 48.5731 51.2307 48.8975 51.1498 49.1813C51.0284 49.4652 50.9879 49.6679 50.9879 49.7896C50.9879 50.1545 51.1093 50.3573 51.2712 50.4384C51.4331 50.4789 51.676 50.4789 51.9188 50.3978C52.1617 50.3167 52.4045 50.1545 52.6474 49.9923C52.8902 49.8301 53.0926 49.6679 53.2545 49.5463C53.5783 49.303 53.9426 48.938 54.3474 48.4514C54.7521 47.9648 55.1569 47.5188 55.5212 46.9916C55.9259 46.505 56.2497 46.0184 56.5735 45.6129C56.8973 45.2074 57.1402 44.883 57.3021 44.6803C57.383 44.5586 57.464 44.437 57.5449 44.3153C57.6259 44.1937 57.7068 44.072 57.8283 43.9098C58.0307 43.6259 58.1926 43.3421 58.3545 43.0582C58.5164 42.7744 58.6783 42.5311 58.8402 42.3283C59.0021 42.1256 59.164 41.9634 59.3259 41.8012C59.4878 41.639 59.4878 41.5173 59.6497 41.5173Z" fill="black"/>
<path d="M63.3728 44.1935C63.3728 44.3962 63.4133 44.5989 63.4538 44.7205C63.4942 44.8827 63.6156 44.9232 63.818 44.9232C64.0203 44.9232 64.3036 44.8422 64.7083 44.6394C65.1129 44.4367 65.639 44.1124 66.3269 43.6664C66.6507 43.4637 66.9339 43.3827 67.0958 43.5043C67.2577 43.6259 67.3791 43.8286 67.3791 44.1124C67.4196 44.3962 67.3386 44.7205 67.2172 45.0854C67.0958 45.4503 66.8935 45.7341 66.6507 46.0179C66.0841 46.626 65.5581 47.2341 65.1129 47.7612C64.6678 48.3287 64.3036 48.8558 64.0203 49.3017C63.737 49.7882 63.5752 50.1531 63.4942 50.4774C63.4133 50.8018 63.4538 51.0045 63.6561 51.1261C63.8584 51.2883 64.2226 51.2477 64.6678 51.1261C65.1534 50.9639 65.7199 50.6396 66.4079 50.1937C67.0958 49.7477 67.9052 49.099 68.7954 48.3287C69.6857 47.5584 70.6569 46.5854 71.6686 45.4908C71.7495 45.4097 71.8709 45.3287 72.0328 45.2881C72.1947 45.2476 72.2756 45.2476 72.397 45.2881C72.4779 45.3287 72.5589 45.4097 72.5589 45.5314C72.5589 45.653 72.4779 45.8152 72.3161 46.0179C71.9923 46.4233 71.5877 46.8287 71.1425 47.2747C70.6974 47.7206 70.2523 48.2071 69.7666 48.6531C69.281 49.099 68.755 49.545 68.2289 49.9909C67.7028 50.4369 67.1768 50.8018 66.6102 51.1261C66.0841 51.4504 65.5581 51.6937 65.032 51.8964C64.5059 52.0586 64.0203 52.1396 63.5752 52.0991C63.13 52.0586 62.8063 51.9369 62.5635 51.6937C62.3207 51.491 62.2398 51.1261 62.3207 50.6396C62.4016 50.1531 62.7254 49.5044 63.2514 48.7342C63.7775 47.9233 64.5869 46.9503 65.6795 45.8152C65.8413 45.4908 65.8818 45.2476 65.9223 45.1665C65.9223 45.0854 65.8818 45.0449 65.7604 45.0854C65.639 45.1259 65.4771 45.207 65.2748 45.3287C65.0725 45.4503 64.8297 45.5719 64.5869 45.6935C64.3036 45.8152 64.0203 45.8962 63.6966 45.9773C63.3728 46.0584 63.0491 46.0584 62.7254 45.9773C62.2398 45.8557 61.916 45.653 61.7542 45.3692C61.5923 45.0854 61.5113 44.7611 61.5518 44.4367C61.5923 44.1124 61.6732 43.7881 61.8755 43.5043C62.0374 43.2205 62.2398 42.9772 62.4421 42.8556C62.6849 42.6934 62.9277 42.6934 63.0896 42.8962C63.2919 43.1394 63.3728 43.5448 63.3728 44.1935Z" fill="black"/>
<path d="M76.9728 42.0448C77.499 42.0043 77.9038 42.0448 78.2276 42.207C78.5514 42.3692 78.7538 42.5314 78.9157 42.7747C79.0776 43.018 79.1585 43.2613 79.1585 43.5046C79.199 43.7479 79.199 43.9912 79.1585 44.194C79.1181 44.4373 79.0371 44.64 78.8752 44.7617C78.7133 44.8833 78.5514 44.9239 78.349 44.9239C78.1466 44.9239 77.9847 44.8833 77.8228 44.7617C77.6609 44.6806 77.58 44.5184 77.58 44.3562C77.58 44.2345 77.58 44.1129 77.58 43.9507C77.58 43.7885 77.58 43.6263 77.5395 43.4641C77.499 43.3019 77.4181 43.1802 77.2967 43.0991C77.1752 43.018 76.9728 43.018 76.6895 43.0991C75.88 43.3424 75.1919 43.6668 74.5038 44.0723C73.8562 44.4778 73.2895 44.9239 72.8038 45.451C72.3181 45.9376 71.9134 46.4242 71.63 46.9514C71.3467 47.4786 71.1443 47.9246 71.0229 48.3301C70.942 48.7356 70.942 49.1006 71.0634 49.3844C71.1848 49.6683 71.4277 49.8305 71.7919 49.8305C72.1562 49.871 72.5205 49.7899 72.9253 49.6683C73.33 49.5061 73.7348 49.3439 74.1395 49.1006C74.5443 48.8573 74.9086 48.614 75.2324 48.3301C75.5562 48.0463 75.8395 47.803 76.0419 47.6002C76.1633 47.3164 76.3252 47.0325 76.5276 46.7081C76.6086 46.5459 76.6895 46.3431 76.8109 46.0998C76.9324 45.8971 77.0538 45.6943 77.2157 45.5321C77.3776 45.3699 77.5395 45.2483 77.7419 45.1672C77.9443 45.0861 78.1466 45.1266 78.3895 45.2483C78.5109 45.3294 78.5919 45.4105 78.6324 45.4916C78.6728 45.5727 78.7133 45.6538 78.6728 45.7754C78.7133 45.8971 78.7133 46.0187 78.5919 46.0998L78.3895 46.262C77.9847 46.7487 77.6205 47.1947 77.2157 47.6002C76.9728 48.0057 76.7705 48.3301 76.73 48.6545C76.649 48.9789 76.649 49.2222 76.649 49.4655C76.6895 49.6683 76.73 49.871 76.8514 49.9927C76.9324 50.1143 77.0538 50.1954 77.1347 50.236C77.4586 50.3171 77.8633 50.236 78.349 50.0332C78.7943 49.8305 79.28 49.5466 79.8061 49.2222C80.3323 48.8978 80.818 48.4923 81.3037 48.0463C81.7895 47.6002 82.2752 47.1947 82.6799 46.8298C83.0847 46.4242 83.449 46.0998 83.7323 45.816C84.0156 45.5321 84.218 45.3699 84.299 45.3294C84.5418 45.1672 84.7442 45.0861 84.9061 45.1672C85.068 45.2077 85.1085 45.3699 84.9466 45.6538C84.8656 45.7754 84.6632 46.0187 84.3394 46.3837C84.0156 46.7487 83.5704 47.1542 83.0847 47.6408C82.599 48.1274 82.0323 48.5734 81.3847 49.06C80.7776 49.5466 80.1704 49.9521 79.5228 50.3171C78.9157 50.682 78.3085 50.9253 77.7824 51.0875C77.2562 51.2497 76.7705 51.2092 76.3657 51.047C76.1229 50.9253 75.88 50.7226 75.7586 50.3982C75.5967 50.0738 75.5562 49.6683 75.5967 49.1817C74.9895 49.6683 74.3419 50.0332 73.7348 50.3171C73.1276 50.5604 72.48 50.7226 71.7919 50.7226C71.3872 50.7226 71.0634 50.682 70.8205 50.6009C70.5777 50.5198 70.3753 50.3982 70.2539 50.236C70.1324 50.0738 70.011 49.9116 69.9705 49.7494C69.9301 49.5872 69.8896 49.3844 69.8896 49.2628C69.8896 48.7762 69.9705 48.249 70.1729 47.7219C70.3753 47.1947 70.6586 46.6675 71.0229 46.1404C71.3872 45.6132 71.792 45.1266 72.2777 44.6806C72.7634 44.2345 73.2895 43.829 73.8157 43.4641C74.3419 43.0991 74.8681 42.8153 75.4348 42.572C76.0014 42.207 76.5276 42.0854 76.9728 42.0448Z" fill="black"/>
<path d="M96.3188 28.5411C96.2783 28.8655 96.1569 29.3927 95.8736 30.1226C95.6307 30.8525 95.2664 31.704 94.7807 32.6772C94.3355 33.6504 93.7688 34.7047 93.1212 35.7996C92.4736 36.8944 91.7855 37.9893 90.976 39.0436C90.207 40.0979 89.357 41.1117 88.426 42.0038C87.5356 42.9364 86.5642 43.6663 85.5927 44.2746C85.3499 44.9639 85.107 45.5722 84.9047 46.221C84.7023 46.8698 84.5809 47.397 84.4999 47.9241C84.419 48.4513 84.3785 48.8973 84.3785 49.3028C84.3785 49.7083 84.4594 50.0327 84.6213 50.276C84.8642 50.7221 85.2689 50.9248 85.7546 50.9248C86.2404 50.8843 86.807 50.7221 87.4142 50.3977C88.0213 50.0733 88.6689 49.6678 89.3165 49.1406C89.9641 48.6135 90.5713 48.0863 91.1379 47.5592C91.7046 47.032 92.1903 46.5049 92.6355 46.0588C93.0403 45.6127 93.3236 45.2478 93.4855 45.045C93.526 44.9639 93.6069 44.9234 93.7284 44.9234C93.8498 44.9234 93.8903 44.9639 93.9712 45.045C94.0522 45.1261 94.0927 45.2072 94.1331 45.3289C94.1736 45.4505 94.1331 45.5722 94.0522 45.6938C93.8903 45.8966 93.5665 46.2615 93.1212 46.7482C92.6355 47.2348 92.1093 47.8025 91.4617 48.4107C90.8141 49.019 90.126 49.5867 89.357 50.1138C88.588 50.6815 87.8594 51.087 87.1713 51.4114C86.4427 51.7358 85.7951 51.8169 85.188 51.7764C84.5809 51.7358 84.0951 51.3303 83.7309 50.6815C83.488 50.2355 83.4071 49.6678 83.4475 48.9784C83.488 48.2891 83.6094 47.4375 83.8523 46.5454C84.0951 45.6533 84.419 44.6801 84.8237 43.6258C85.2285 42.5715 85.6737 41.5172 86.1999 40.4223C86.7261 39.3275 87.2523 38.2326 87.8594 37.1378C88.4665 36.0429 89.0332 34.9886 89.6808 33.9748C90.2879 32.9611 90.8951 32.0284 91.5022 31.1363C92.1093 30.2442 92.676 29.5143 93.2022 28.8655C93.7284 28.2167 94.2141 27.7301 94.6593 27.3652C95.1045 27.0002 95.4284 26.7974 95.7117 26.7974C95.8736 26.7974 95.9545 26.838 96.0355 26.9596C96.1164 27.0813 96.1974 27.2029 96.2379 27.3652C96.2783 27.5274 96.3188 27.7301 96.3188 27.9329C96.3593 28.0951 96.3593 28.3384 96.3188 28.5411ZM95.3069 27.9734C95.1855 27.9734 94.9426 28.2167 94.5784 28.6628C94.2141 29.1088 93.8093 29.6765 93.2831 30.4064C92.7974 31.1363 92.2308 31.9879 91.6236 32.9611C91.0165 33.9343 90.4094 34.948 89.8022 36.0429C89.1951 37.1378 88.5879 38.2326 87.9808 39.4086C87.3737 40.544 86.8475 41.6794 86.3618 42.7742C87.2927 42.1254 88.1832 41.3144 89.0332 40.3412C89.8832 39.368 90.6522 38.3137 91.3403 37.2189C92.0284 36.124 92.676 35.0291 93.2427 33.9343C93.8093 32.8394 94.2546 31.8662 94.5784 30.9741C94.9426 30.082 95.1855 29.3927 95.3069 28.825C95.4284 28.2167 95.4284 27.9734 95.3069 27.9734Z" fill="black"/>
<path d="M22.7781 71.562C22.6566 71.562 22.5352 71.5215 22.4542 71.4809C22.3733 71.3999 22.3328 71.3188 22.3328 71.1971V61.5482C22.3328 61.4266 22.3733 61.3455 22.4542 61.305C22.5352 61.2645 22.6566 61.2239 22.7781 61.2239C22.8995 61.2239 22.9805 61.2645 23.1019 61.305C23.2234 61.3455 23.2638 61.4266 23.2638 61.5482V71.1971C23.2638 71.3188 23.2234 71.3999 23.1019 71.4809C23.021 71.5215 22.8995 71.562 22.7781 71.562Z" fill="black"/>
<path d="M25.8942 71.5624C25.7728 71.5624 25.6513 71.5219 25.5704 71.4814C25.4894 71.4003 25.4489 71.3192 25.4489 71.1976V61.5487C25.4489 61.427 25.4894 61.3054 25.5704 61.2649C25.6513 61.2243 25.7728 61.1838 25.8942 61.1838C26.0157 61.1838 26.0966 61.2243 26.1776 61.2649C26.2585 61.346 26.3395 61.3865 26.4205 61.5081C26.5014 61.5892 26.5824 61.7108 26.6228 61.8325L30.4684 69.3732V61.5081C30.4684 61.3865 30.5089 61.3054 30.6303 61.2649C30.7113 61.2243 30.8327 61.1838 30.9541 61.1838C31.0756 61.1838 31.1565 61.2243 31.278 61.2649C31.3589 61.3054 31.4399 61.3865 31.4399 61.5081V71.1976C31.4399 71.3192 31.3994 71.4003 31.278 71.4814C31.197 71.5624 31.0756 71.5624 30.9541 71.5624C30.8327 71.5624 30.7113 71.5219 30.5898 71.4003C30.4684 71.2786 30.3874 71.157 30.3065 71.0354L26.38 63.373V71.1976C26.38 71.3192 26.3395 71.4003 26.2181 71.4814C26.0966 71.5219 25.9752 71.5624 25.8942 71.5624Z" fill="black"/>
<path d="M33.9883 71.5622C33.8668 71.5622 33.7454 71.5216 33.6644 71.4811C33.5835 71.4406 33.543 71.3189 33.543 71.1973V61.5484C33.543 61.4268 33.5835 61.3457 33.6644 61.3052C33.7454 61.2241 33.8668 61.2241 33.9478 61.2241H38.9672C39.0887 61.2241 39.1696 61.2646 39.2506 61.3457C39.2911 61.4268 39.3316 61.5484 39.3316 61.6295C39.3316 61.7511 39.2911 61.8727 39.2506 61.9538C39.1696 62.0349 39.0887 62.0754 39.0077 62.0754H34.474V65.9674H36.7004C36.8218 65.9674 36.9028 66.008 36.9433 66.0891C36.9838 66.1701 37.0242 66.2918 37.0242 66.3729C37.0242 66.4539 36.9838 66.535 36.9433 66.6161C36.9028 66.6972 36.8218 66.7377 36.7004 66.7377H34.474V71.1973C34.474 71.3189 34.4335 71.4 34.3121 71.4811C34.1907 71.5622 34.1097 71.5622 33.9883 71.5622Z" fill="black"/>
<path d="M43.4603 71.6435C42.8936 71.6435 42.4079 71.5624 41.9626 71.3597C41.5173 71.157 41.153 70.8327 40.9101 70.3867C40.6268 69.9408 40.5053 69.3327 40.5053 68.6029V61.5081C40.5053 61.3865 40.5458 61.3054 40.6672 61.2649C40.7482 61.2243 40.8696 61.1838 40.9911 61.1838C41.1125 61.1838 41.234 61.2243 41.3149 61.2649C41.3959 61.3054 41.4768 61.3865 41.4768 61.5081V68.6029C41.4768 69.3327 41.6388 69.9002 42.0031 70.2651C42.3674 70.63 42.8531 70.7921 43.5008 70.7921C44.1485 70.7921 44.6342 70.63 44.9985 70.2651C45.3629 69.9002 45.5248 69.3732 45.5248 68.6029V61.5081C45.5248 61.3865 45.5653 61.3054 45.6867 61.2649C45.7677 61.2243 45.8891 61.1838 46.0105 61.1838C46.132 61.1838 46.2534 61.2243 46.3344 61.2649C46.4153 61.3054 46.4963 61.3865 46.4963 61.5081V68.6029C46.4963 69.3327 46.3748 69.9408 46.0915 70.3867C45.8486 70.8327 45.4843 71.157 45.039 71.3597C44.5128 71.5624 44.027 71.6435 43.4603 71.6435Z" fill="black"/>
<path d="M50.8665 71.6841C50.2593 71.6841 49.733 71.603 49.3283 71.4003C48.9235 71.1976 48.5591 70.9949 48.3163 70.7516C48.0734 70.5084 47.952 70.3057 47.952 70.1435C47.952 70.0624 47.9924 69.9813 48.0329 69.9002C48.0734 69.8192 48.1139 69.7381 48.1948 69.6975C48.2758 69.657 48.3163 69.6165 48.3972 69.6165C48.4782 69.6165 48.5996 69.657 48.6806 69.7786C48.7615 69.9002 48.9235 70.0219 49.0854 70.184C49.2473 70.3462 49.4902 70.4678 49.733 70.5894C49.9759 70.7111 50.3807 70.7516 50.826 70.7516C51.2713 70.7516 51.6356 70.6705 51.9594 70.5489C52.2832 70.3867 52.5261 70.184 52.688 69.9002C52.85 69.6164 52.9309 69.2516 52.9309 68.8056C52.9309 68.3597 52.85 67.9948 52.688 67.711C52.5261 67.4272 52.2832 67.2245 51.9999 67.0218C51.7165 66.8191 51.4332 66.6975 51.0689 66.5758C50.745 66.4542 50.4212 66.3326 50.0569 66.2109C49.733 66.0893 49.4092 65.9272 49.1259 65.7245C48.8425 65.5217 48.6401 65.2785 48.4377 64.9542C48.2758 64.6298 48.1948 64.2244 48.1948 63.7379C48.1948 63.2109 48.2758 62.8055 48.4782 62.4811C48.6806 62.1568 48.9235 61.873 49.2068 61.7108C49.4902 61.5081 49.814 61.3865 50.1783 61.3054C50.5426 61.2243 50.8665 61.1838 51.1903 61.1838C51.4737 61.1838 51.7165 61.2243 51.9999 61.2649C52.2832 61.3054 52.5261 61.3865 52.769 61.427C53.0119 61.4676 53.2143 61.5892 53.3357 61.7108C53.4976 61.8325 53.5381 61.9135 53.5381 62.0757C53.5381 62.1568 53.5381 62.1973 53.4976 62.2784C53.4571 62.3595 53.4167 62.4406 53.3762 62.4811C53.3357 62.5622 53.2548 62.5622 53.1333 62.5622C53.0524 62.5622 52.9309 62.5217 52.769 62.4406C52.6071 62.3595 52.4047 62.2784 52.1618 62.1568C51.9189 62.0757 51.5546 62.0352 51.1498 62.0352C50.826 62.0352 50.4617 62.0757 50.1783 62.1973C49.8545 62.2784 49.6116 62.4811 49.4092 62.6838C49.2068 62.9271 49.1259 63.2514 49.1259 63.6974C49.1259 64.0622 49.2068 64.3866 49.3687 64.6298C49.5306 64.8731 49.7735 65.0352 50.0569 65.1974C50.3402 65.3596 50.6236 65.4812 50.9879 65.6028C51.3117 65.7244 51.6356 65.8461 51.9999 66.0082C52.3237 66.1704 52.6476 66.3326 52.9309 66.5758C53.2143 66.7785 53.4167 67.1029 53.6191 67.4677C53.8215 67.8326 53.8619 68.2786 53.8619 68.8462C53.8619 69.5354 53.7405 70.0624 53.4976 70.5084C53.2548 70.9543 52.8904 71.2381 52.4452 71.4814C51.9594 71.5624 51.4332 71.6841 50.8665 71.6841Z" fill="black"/>
<path d="M56.0057 71.5622C55.8843 71.5622 55.7628 71.5216 55.6819 71.4811C55.6009 71.4 55.5604 71.3189 55.5604 71.1973V61.5484C55.5604 61.4268 55.6009 61.3457 55.6819 61.3052C55.7628 61.2646 55.8843 61.2241 56.0057 61.2241C56.1271 61.2241 56.2081 61.2646 56.3295 61.3052C56.451 61.3457 56.4915 61.4268 56.4915 61.5484V71.1973C56.4915 71.3189 56.451 71.4 56.3295 71.4811C56.2081 71.5216 56.0867 71.5622 56.0057 71.5622Z" fill="black"/>
<path d="M61.4303 71.6433C60.8636 71.6433 60.3778 71.5622 59.9325 71.3595C59.4873 71.1568 59.1229 70.8324 58.8801 70.3865C58.6372 69.9405 58.4753 69.3324 58.4753 68.6026V64.2242C58.4753 63.4944 58.5967 62.9268 58.8801 62.4809C59.1229 62.0349 59.4873 61.7106 59.9325 61.5079C60.3778 61.3052 60.8636 61.2241 61.4303 61.2241C61.997 61.2241 62.4827 61.3052 62.928 61.5079C63.3733 61.7106 63.7376 62.0349 63.9805 62.4809C64.2233 62.9268 64.3853 63.4944 64.3853 64.2242V68.6026C64.3853 69.3324 64.2638 69.9405 63.9805 70.3865C63.6971 70.8324 63.3733 71.1568 62.928 71.3595C62.4827 71.5622 61.997 71.6433 61.4303 71.6433ZM61.4303 70.7919C62.0779 70.7919 62.5637 70.6297 62.928 70.2649C63.2923 69.9 63.4542 69.3729 63.4542 68.6026V64.2242C63.4542 63.4944 63.2923 62.9268 62.928 62.6025C62.5637 62.2376 62.0779 62.0754 61.4303 62.0754C60.7826 62.0754 60.2968 62.2376 59.973 62.6025C59.6087 62.9674 59.4468 63.4944 59.4468 64.2242V68.6026C59.4468 69.3324 59.6087 69.9 59.973 70.2649C60.3373 70.6297 60.8231 70.7919 61.4303 70.7919Z" fill="black"/>
<path d="M66.8939 71.5624C66.7725 71.5624 66.6511 71.5219 66.5701 71.4814C66.4892 71.4003 66.4487 71.3192 66.4487 71.1976V61.5487C66.4487 61.427 66.4892 61.3054 66.5701 61.2649C66.6511 61.2243 66.7725 61.1838 66.8939 61.1838C67.0154 61.1838 67.0963 61.2243 67.1773 61.2649C67.2583 61.346 67.3392 61.3865 67.4202 61.5081C67.5011 61.5892 67.5821 61.7108 67.6226 61.8325L71.4681 69.3732V61.5081C71.4681 61.3865 71.5086 61.3054 71.5896 61.2649C71.6705 61.2243 71.792 61.1838 71.9134 61.1838C72.0348 61.1838 72.1158 61.2243 72.2372 61.2649C72.3182 61.3054 72.3991 61.3865 72.3991 61.5081V71.1976C72.3991 71.3192 72.3587 71.4003 72.2372 71.4814C72.1563 71.5624 72.0348 71.5624 71.9134 71.5624C71.792 71.5624 71.6705 71.5219 71.5491 71.4003C71.4276 71.2786 71.3467 71.157 71.2657 71.0354L67.3392 63.373V71.1976C67.3392 71.3192 67.2987 71.4003 67.1773 71.4814C67.1368 71.5219 67.0154 71.5624 66.8939 71.5624Z" fill="black"/>
<path d="M76.8906 71.6841C76.2834 71.6841 75.7572 71.603 75.3524 71.4003C74.9476 71.1976 74.5833 70.9949 74.3404 70.7516C74.0975 70.5084 73.9761 70.3057 73.9761 70.1435C73.9761 70.0624 74.0166 69.9813 74.057 69.9002C74.0975 69.8192 74.138 69.7381 74.219 69.6975C74.2999 69.657 74.3404 69.6165 74.4214 69.6165C74.5023 69.6165 74.6238 69.657 74.7047 69.7786C74.7857 69.9002 74.9476 70.0219 75.1095 70.184C75.2714 70.3462 75.5143 70.4678 75.7572 70.5894C76.0001 70.7111 76.4049 70.7516 76.8501 70.7516C77.2954 70.7516 77.6597 70.6705 77.9836 70.5489C78.3074 70.3867 78.5503 70.184 78.7122 69.9002C78.8741 69.6164 78.9551 69.2516 78.9551 68.8056C78.9551 68.3597 78.8741 67.9948 78.7122 67.711C78.5503 67.4272 78.3074 67.2245 78.024 67.0218C77.7407 66.8596 77.4573 66.6975 77.093 66.5758C76.7692 66.4542 76.4453 66.3326 76.081 66.2109C75.7572 66.0893 75.4333 65.9272 75.15 65.7245C74.8666 65.5217 74.6642 65.2785 74.4618 64.9542C74.2999 64.6298 74.219 64.2244 74.219 63.7379C74.219 63.2109 74.2999 62.8055 74.5023 62.4811C74.7047 62.1568 74.9476 61.873 75.2309 61.7108C75.5143 61.5081 75.8381 61.3865 76.2025 61.3054C76.5668 61.2243 76.8906 61.1838 77.2144 61.1838C77.4978 61.1838 77.7407 61.2243 78.024 61.2649C78.3074 61.3054 78.5503 61.3865 78.7931 61.427C79.036 61.5081 79.2384 61.5892 79.3599 61.7108C79.5218 61.8325 79.5623 61.9135 79.5623 62.0757C79.5623 62.1568 79.5622 62.1973 79.5218 62.2784C79.4813 62.3595 79.4408 62.4406 79.4003 62.4811C79.3599 62.5622 79.2789 62.5622 79.1575 62.5622C79.0765 62.5622 78.9551 62.5217 78.7931 62.4406C78.6312 62.3595 78.4288 62.2784 78.1859 62.1568C77.9431 62.0757 77.5788 62.0352 77.174 62.0352C76.8501 62.0352 76.4858 62.0757 76.2025 62.1973C75.8786 62.2784 75.6357 62.4811 75.4333 62.6838C75.2309 62.9271 75.15 63.2514 75.15 63.6974C75.15 64.0622 75.231 64.3866 75.3929 64.6298C75.5548 64.8731 75.7977 65.0352 76.081 65.1974C76.3644 65.3596 76.6477 65.4812 77.012 65.6028C77.3359 65.7244 77.6597 65.8461 78.024 66.0082C78.3479 66.1704 78.6717 66.3326 78.9551 66.5758C79.2384 66.7785 79.4408 67.1029 79.6432 67.4677C79.8051 67.8326 79.8861 68.2786 79.8861 68.8462C79.8861 69.5354 79.7646 70.0624 79.5218 70.5084C79.2789 70.9543 78.9146 71.2381 78.4693 71.4814C77.9835 71.5624 77.4978 71.6841 76.8906 71.6841Z" fill="black"/>
<path d="M29.9823 56.4805L70.7844 56.5228" stroke="black" stroke-width="1.00036" stroke-miterlimit="10"/>
<path d="M85.1882 16.2141C86.038 16.2141 86.4832 16.6599 86.4832 17.3084C86.4832 17.7542 86.2404 18.1595 85.6738 18.3216L86.6046 19.8212H85.7952L84.9859 18.4027H84.5407V19.8212H83.9337V16.2546L85.1882 16.2141ZM85.1882 16.7004H84.5407V17.9163H85.1882C85.6334 17.9163 85.8357 17.6731 85.8357 17.3084C85.8357 16.9436 85.6738 16.7004 85.1882 16.7004Z" fill="black"/>
<path d="M85.0674 21.485C86.9676 21.485 88.5081 19.9422 88.5081 18.039C88.5081 16.1358 86.9676 14.5929 85.0674 14.5929C83.1671 14.5929 81.6266 16.1358 81.6266 18.039C81.6266 19.9422 83.1671 21.485 85.0674 21.485Z" stroke="black" stroke-width="0.750272" stroke-miterlimit="10"/>
</svg>